<svg xmlns="http://www.w3.org/2000/svg" xmlns:xlink="http://www.w3.org/1999/xlink" xmlns:lucid="lucid" width="2977.31" height="1291"><g transform="translate(697.3056902324773 1220)" lucid:page-tab-id="0_0"><path d="M-1806.87-1258.84h5484.6V64h-5484.6z" fill="#fff"/><path d="M1840-274a6 6 0 0 1 6-6h408a6 6 0 0 1 6 6v139a6 6 0 0 1-6 6h-408a6 6 0 0 1-6-6z" fill="#fff"/><path d="M1840-274a6 6 0 0 1 6-6h408a6 6 0 0 1 6 6v139a6 6 0 0 1-6 6h-408a6 6 0 0 1-6-6zM1840-240h420M1908-240v111M2198.67-240v111" stroke="#5e5e5e" stroke-width="3" fill="none"/><use xlink:href="#a" transform="matrix(1,0,0,1,1850,-280) translate(145.80246913580245 24.444444444444443)"/><use xlink:href="#b" transform="matrix(1,0,0,1,1845,-237.5) translate(14.185185185185187 20.444444444444443)"/><use xlink:href="#c" transform="matrix(1,0,0,1,1913,-237.5) translate(0 20.444444444444443)"/><use xlink:href="#d" transform="matrix(1,0,0,1,1913,-237.5) translate(28.333333333333332 20.444444444444443)"/><use xlink:href="#e" transform="matrix(1,0,0,1,2203.6666666666665,-237.5) translate(0 20.444444444444443)"/><use xlink:href="#f" transform="matrix(1,0,0,1,1845,-200.5) translate(14.833333333333336 20.444444444444443)"/><use xlink:href="#c" transform="matrix(1,0,0,1,1913,-200.5) translate(0 20.444444444444443)"/><use xlink:href="#g" transform="matrix(1,0,0,1,1913,-200.5) translate(28.333333333333332 20.444444444444443)"/><use xlink:href="#h" transform="matrix(1,0,0,1,1913,-200.5) translate(142.90123456790124 20.444444444444443)"/><use xlink:href="#e" transform="matrix(1,0,0,1,2203.6666666666665,-200.5) translate(0 20.444444444444443)"/><use xlink:href="#f" transform="matrix(1,0,0,1,1845,-163.5) translate(14.833333333333336 20.444444444444443)"/><use xlink:href="#c" transform="matrix(1,0,0,1,1913,-163.5) translate(0 20.444444444444443)"/><use xlink:href="#i" transform="matrix(1,0,0,1,1913,-163.5) translate(28.333333333333332 20.444444444444443)"/><use xlink:href="#d" transform="matrix(1,0,0,1,1913,-163.5) translate(159.0740740740741 20.444444444444443)"/><use xlink:href="#e" transform="matrix(1,0,0,1,2203.6666666666665,-163.5) translate(0 20.444444444444443)"/><path d="M840-852a6 6 0 0 1 6-6h428a6 6 0 0 1 6 6v213a6 6 0 0 1-6 6H846a6 6 0 0 1-6-6z" fill="#fff"/><path d="M840-852a6 6 0 0 1 6-6h428a6 6 0 0 1 6 6v213a6 6 0 0 1-6 6H846a6 6 0 0 1-6-6zM840-818h440M928-818v185M1161.33-818v185" stroke="#5e5e5e" stroke-width="3" fill="none"/><use xlink:href="#j" transform="matrix(1,0,0,1,850,-858) translate(193.9814814814815 24.444444444444443)"/><use xlink:href="#b" transform="matrix(1,0,0,1,845,-815.5) translate(24.185185185185187 20.444444444444443)"/><use xlink:href="#c" transform="matrix(1,0,0,1,933,-815.5) translate(0 20.444444444444443)"/><use xlink:href="#k" transform="matrix(1,0,0,1,933,-815.5) translate(28.333333333333332 20.444444444444443)"/><use xlink:href="#e" transform="matrix(1,0,0,1,1166.3333333333333,-815.5) translate(0 20.444444444444443)"/><use xlink:href="#f" transform="matrix(1,0,0,1,845,-778.5) translate(24.833333333333336 20.444444444444443)"/><use xlink:href="#c" transform="matrix(1,0,0,1,933,-778.5) translate(0 20.444444444444443)"/><use xlink:href="#g" transform="matrix(1,0,0,1,933,-778.5) translate(28.333333333333332 20.444444444444443)"/><use xlink:href="#h" transform="matrix(1,0,0,1,933,-778.5) translate(142.90123456790124 20.444444444444443)"/><use xlink:href="#e" transform="matrix(1,0,0,1,1166.3333333333333,-778.5) translate(0 20.444444444444443)"/><use xlink:href="#f" transform="matrix(1,0,0,1,845,-741.5) translate(24.833333333333336 20.444444444444443)"/><use xlink:href="#c" transform="matrix(1,0,0,1,933,-741.5) translate(0 20.444444444444443)"/><use xlink:href="#l" transform="matrix(1,0,0,1,933,-741.5) translate(28.333333333333332 20.444444444444443)"/><use xlink:href="#m" transform="matrix(1,0,0,1,1166.3333333333333,-741.5) translate(0 20.444444444444443)"/><use xlink:href="#f" transform="matrix(1,0,0,1,845,-704.5) translate(24.833333333333336 20.444444444444443)"/><use xlink:href="#c" transform="matrix(1,0,0,1,933,-704.5) translate(0 20.444444444444443)"/><use xlink:href="#n" transform="matrix(1,0,0,1,933,-704.5) translate(28.333333333333332 20.444444444444443)"/><use xlink:href="#e" transform="matrix(1,0,0,1,1166.3333333333333,-704.5) translate(0 20.444444444444443)"/><use xlink:href="#o" transform="matrix(1,0,0,1,933,-667.5) translate(0 20.444444444444443)"/><use xlink:href="#k" transform="matrix(1,0,0,1,933,-667.5) translate(65.30864197530863 20.444444444444443)"/><use xlink:href="#p" transform="matrix(1,0,0,1,1166.3333333333333,-667.5) translate(0 20.444444444444443)"/><path d="M-677.3-94.02a6 6 0 0 1 6-6h408a6 6 0 0 1 6 6v139a6 6 0 0 1-6 6h-408a6 6 0 0 1-6-6z" fill="#fff"/><path d="M-677.3-94.02a6 6 0 0 1 6-6h408a6 6 0 0 1 6 6v139a6 6 0 0 1-6 6h-408a6 6 0 0 1-6-6zM-677.3-60.02h420M-617.3-60.02v111M-371.97-60.02v111" stroke="#5e5e5e" stroke-width="3" fill="none"/><use xlink:href="#q" transform="matrix(1,0,0,1,-667.3056902324773,-100.01785913427369) translate(121.01851851851853 24.444444444444443)"/><use xlink:href="#r" transform="matrix(1,0,0,1,-667.3056902324773,-100.01785913427369) translate(183.91975308641975 24.444444444444443)"/><use xlink:href="#s" transform="matrix(1,0,0,1,-667.3056902324773,-100.01785913427369) translate(214.78395061728395 24.444444444444443)"/><use xlink:href="#b" transform="matrix(1,0,0,1,-672.3056902324773,-57.51785913427369) translate(10.185185185185187 20.444444444444443)"/><use xlink:href="#c" transform="matrix(1,0,0,1,-612.3056902324773,-57.51785913427369) translate(0 20.444444444444443)"/><use xlink:href="#t" transform="matrix(1,0,0,1,-612.3056902324773,-57.51785913427369) translate(28.333333333333332 20.444444444444443)"/><use xlink:href="#r" transform="matrix(1,0,0,1,-612.3056902324773,-57.51785913427369) translate(91.23456790123456 20.444444444444443)"/><use xlink:href="#s" transform="matrix(1,0,0,1,-612.3056902324773,-57.51785913427369) translate(122.09876543209876 20.444444444444443)"/><use xlink:href="#e" transform="matrix(1,0,0,1,-366.97235689914396,-57.51785913427369) translate(0 20.444444444444443)"/><use xlink:href="#u" transform="matrix(1,0,0,1,-612.3056902324773,-20.517859134273692) translate(0 20.444444444444443)"/><use xlink:href="#p" transform="matrix(1,0,0,1,-366.97235689914396,-20.517859134273692) translate(0 20.444444444444443)"/><use xlink:href="#v" transform="matrix(1,0,0,1,-612.3056902324773,16.482140865726308) translate(0 20.444444444444443)"/><use xlink:href="#e" transform="matrix(1,0,0,1,-366.97235689914396,16.482140865726308) translate(0 20.444444444444443)"/><path d="M240-777.62a6 6 0 0 1 6-6h408a6 6 0 0 1 6 6v176a6 6 0 0 1-6 6H246a6 6 0 0 1-6-6z" fill="#fff"/><path d="M240-777.62a6 6 0 0 1 6-6h408a6 6 0 0 1 6 6v176a6 6 0 0 1-6 6H246a6 6 0 0 1-6-6zM240-743.62h420M300-743.62v148M540-743.62v148" stroke="#5e5e5e" stroke-width="3" fill="none"/><use xlink:href="#w" transform="matrix(1,0,0,1,250,-783.6220975063013) translate(164.25925925925927 24.444444444444443)"/><use xlink:href="#b" transform="matrix(1,0,0,1,245,-741.1220975063013) translate(10.185185185185187 20.444444444444443)"/><use xlink:href="#c" transform="matrix(1,0,0,1,305,-741.1220975063013) translate(0 20.444444444444443)"/><use xlink:href="#n" transform="matrix(1,0,0,1,305,-741.1220975063013) translate(28.333333333333332 20.444444444444443)"/><use xlink:href="#e" transform="matrix(1,0,0,1,545,-741.1220975063013) translate(0 20.444444444444443)"/><use xlink:href="#f" transform="matrix(1,0,0,1,245,-704.1220975063013) translate(10.833333333333336 20.444444444444443)"/><use xlink:href="#c" transform="matrix(1,0,0,1,305,-704.1220975063013) translate(0 20.444444444444443)"/><use xlink:href="#x" transform="matrix(1,0,0,1,305,-704.1220975063013) translate(28.333333333333332 20.444444444444443)"/><use xlink:href="#e" transform="matrix(1,0,0,1,545,-704.1220975063013) translate(0 20.444444444444443)"/><use xlink:href="#y" transform="matrix(1,0,0,1,305,-667.1220975063013) translate(0 20.444444444444443)"/><use xlink:href="#p" transform="matrix(1,0,0,1,545,-667.1220975063013) translate(0 20.444444444444443)"/><use xlink:href="#z" transform="matrix(1,0,0,1,305,-630.1220975063013) translate(0 20.444444444444443)"/><use xlink:href="#e" transform="matrix(1,0,0,1,545,-630.1220975063013) translate(0 20.444444444444443)"/><path d="M940-254a6 6 0 0 1 6-6h488a6 6 0 0 1 6 6v102a6 6 0 0 1-6 6H946a6 6 0 0 1-6-6z" fill="#fff"/><path d="M940-254a6 6 0 0 1 6-6h488a6 6 0 0 1 6 6v102a6 6 0 0 1-6 6H946a6 6 0 0 1-6-6zM940-220h500M1000-220v74M1380-220v74" stroke="#5e5e5e" stroke-width="3" fill="none"/><use xlink:href="#A" transform="matrix(1,0,0,1,950,-260) translate(153.11728395061726 24.444444444444443)"/><use xlink:href="#h" transform="matrix(1,0,0,1,950,-260) translate(267.68518518518516 24.444444444444443)"/><use xlink:href="#b" transform="matrix(1,0,0,1,945,-217.5) translate(10.185185185185187 20.444444444444443)"/><use xlink:href="#c" transform="matrix(1,0,0,1,1005,-217.5) translate(0 20.444444444444443)"/><use xlink:href="#g" transform="matrix(1,0,0,1,1005,-217.5) translate(28.333333333333332 20.444444444444443)"/><use xlink:href="#h" transform="matrix(1,0,0,1,1005,-217.5) translate(142.90123456790124 20.444444444444443)"/><use xlink:href="#e" transform="matrix(1,0,0,1,1385,-217.5) translate(0 20.444444444444443)"/><use xlink:href="#f" transform="matrix(1,0,0,1,945,-180.5) translate(10.833333333333336 20.444444444444443)"/><use xlink:href="#c" transform="matrix(1,0,0,1,1005,-180.5) translate(0 20.444444444444443)"/><use xlink:href="#i" transform="matrix(1,0,0,1,1005,-180.5) translate(28.333333333333332 20.444444444444443)"/><use xlink:href="#d" transform="matrix(1,0,0,1,1005,-180.5) translate(159.0740740740741 20.444444444444443)"/><use xlink:href="#e" transform="matrix(1,0,0,1,1385,-180.5) translate(0 20.444444444444443)"/><path d="M1320-554a6 6 0 0 1 6-6h488a6 6 0 0 1 6 6v139a6 6 0 0 1-6 6h-488a6 6 0 0 1-6-6z" fill="#fff"/><path d="M1320-554a6 6 0 0 1 6-6h488a6 6 0 0 1 6 6v139a6 6 0 0 1-6 6h-488a6 6 0 0 1-6-6zM1320-520h500M1380-520v111M1704-520v111" stroke="#5e5e5e" stroke-width="3" fill="none"/><use xlink:href="#B" transform="matrix(1,0,0,1,1330,-560) translate(120.43209876543207 24.444444444444443)"/><use xlink:href="#d" transform="matrix(1,0,0,1,1330,-560) translate(251.17283950617283 24.444444444444443)"/><use xlink:href="#b" transform="matrix(1,0,0,1,1325,-517.5) translate(10.185185185185187 20.444444444444443)"/><use xlink:href="#c" transform="matrix(1,0,0,1,1385,-517.5) translate(0 20.444444444444443)"/><use xlink:href="#i" transform="matrix(1,0,0,1,1385,-517.5) translate(28.333333333333332 20.444444444444443)"/><use xlink:href="#d" transform="matrix(1,0,0,1,1385,-517.5) translate(159.0740740740741 20.444444444444443)"/><use xlink:href="#e" transform="matrix(1,0,0,1,1709,-517.5) translate(0 20.444444444444443)"/><use xlink:href="#C" transform="matrix(1,0,0,1,1385,-480.5) translate(0 20.444444444444443)"/><use xlink:href="#e" transform="matrix(1,0,0,1,1709,-480.5) translate(0 20.444444444444443)"/><use xlink:href="#y" transform="matrix(1,0,0,1,1385,-443.5) translate(0 20.444444444444443)"/><use xlink:href="#p" transform="matrix(1,0,0,1,1709,-443.5) translate(0 20.444444444444443)"/><path d="M-620-741a6 6 0 0 1 6-6h408a6 6 0 0 1 6 6v102a6 6 0 0 1-6 6h-408a6 6 0 0 1-6-6z" fill="#fff"/><path d="M-620-741a6 6 0 0 1 6-6h408a6 6 0 0 1 6 6v102a6 6 0 0 1-6 6h-408a6 6 0 0 1-6-6z" fill="none"/><path d="M-583.78-747h30.22m15.12 0h30.22m15.1 0h30.23m15.12 0h30.22m15.12 0h30.22m15.1 0h30.23m15.12 0h30.22m15.12 0h30.22m15.1 0H-206l.94.07.9.22.88.35.8.5.72.6.6.72.5.8.37.88.23.9.07.95v17m0 17v34m0 17v17l-.07.94-.22.9-.35.88-.5.8-.6.72-.72.6-.8.5-.88.37-.9.23-.95.07h-15.1m-15.12 0h-30.22m-15.12 0h-30.22m-15.1 0h-30.23m-15.12 0h-30.22m-15.12 0h-30.22m-15.1 0h-30.23m-15.12 0h-30.22m-15.12 0h-30.22m-15.1 0H-614l-.94-.07-.9-.22-.88-.35-.8-.5-.72-.6-.6-.72-.5-.8-.37-.88-.23-.9-.07-.95v-17m0-17v-34m0-17v-17l.07-.94.22-.9.35-.88.5-.8.6-.72.72-.6.8-.5.88-.37.9-.23.95-.07h15.1" stroke="#5e5e5e" stroke-width="3" fill="none"/><path d="M-620-707h420" fill="none"/><path d="M-620-707h15.56m15.55 0h31.12m15.56 0h31.1m15.56 0h31.12m15.55 0h31.12m15.56 0h31.1m15.56 0h31.12m15.55 0h31.12m15.56 0h31.1m15.56 0H-200" stroke="#5e5e5e" stroke-width="3" fill="none"/><path d="M-560-707v74" fill="none"/><path d="M-560-707v12.33m0 12.34v24.66m0 12.34V-633" stroke="#5e5e5e" stroke-width="3" fill="none"/><path d="M-314.67-707v74" fill="none"/><path d="M-314.67-707v12.33m0 12.34v24.66m0 12.34V-633" stroke="#5e5e5e" stroke-width="3" fill="none"/><use xlink:href="#D" transform="matrix(1,0,0,1,-610,-747) translate(43.919753086419774 24.444444444444443)"/><use xlink:href="#E" transform="matrix(1,0,0,1,-610,-747) translate(121.57407407407409 24.444444444444443)"/><use xlink:href="#t" transform="matrix(1,0,0,1,-610,-747) translate(198.1172839506173 24.444444444444443)"/><use xlink:href="#r" transform="matrix(1,0,0,1,-610,-747) translate(261.0185185185185 24.444444444444443)"/><use xlink:href="#s" transform="matrix(1,0,0,1,-610,-747) translate(291.8827160493827 24.444444444444443)"/><use xlink:href="#f" transform="matrix(1,0,0,1,-615,-704.5) translate(10.833333333333336 20.444444444444443)"/><use xlink:href="#c" transform="matrix(1,0,0,1,-555,-704.5) translate(0 20.444444444444443)"/><use xlink:href="#F" transform="matrix(1,0,0,1,-555,-704.5) translate(28.333333333333332 20.444444444444443)"/><use xlink:href="#e" transform="matrix(1,0,0,1,-309.66666666666663,-704.5) translate(0 20.444444444444443)"/><use xlink:href="#f" transform="matrix(1,0,0,1,-615,-667.5) translate(10.833333333333336 20.444444444444443)"/><use xlink:href="#c" transform="matrix(1,0,0,1,-555,-667.5) translate(0 20.444444444444443)"/><use xlink:href="#t" transform="matrix(1,0,0,1,-555,-667.5) translate(28.333333333333332 20.444444444444443)"/><use xlink:href="#r" transform="matrix(1,0,0,1,-555,-667.5) translate(91.23456790123456 20.444444444444443)"/><use xlink:href="#s" transform="matrix(1,0,0,1,-555,-667.5) translate(122.09876543209876 20.444444444444443)"/><use xlink:href="#e" transform="matrix(1,0,0,1,-309.66666666666663,-667.5) translate(0 20.444444444444443)"/><path d="M-280-1003a6 6 0 0 1 6-6h408a6 6 0 0 1 6 6v139a6 6 0 0 1-6 6h-408a6 6 0 0 1-6-6z" fill="#fff"/><path d="M-280-1003a6 6 0 0 1 6-6h408a6 6 0 0 1 6 6v139a6 6 0 0 1-6 6h-408a6 6 0 0 1-6-6zM-280-969h420M-220-969v111M20-969v111" stroke="#5e5e5e" stroke-width="3" fill="none"/><use xlink:href="#G" transform="matrix(1,0,0,1,-270,-1009) translate(125.40123456790123 24.444444444444443)"/><use xlink:href="#H" transform="matrix(1,0,0,1,-275,-966.5) translate(10.185185185185187 20.444444444444443)"/><use xlink:href="#I" transform="matrix(1,0,0,1,-215,-966.5) translate(0 20.444444444444443)"/><use xlink:href="#J" transform="matrix(1,0,0,1,-215,-966.5) translate(28.333333333333332 20.444444444444443)"/><use xlink:href="#K" transform="matrix(1,0,0,1,25,-966.5) translate(0 20.444444444444443)"/><use xlink:href="#L" transform="matrix(1,0,0,1,-215,-929.5) translate(0 20.444444444444443)"/><use xlink:href="#M" transform="matrix(1,0,0,1,25,-929.5) translate(0 20.444444444444443)"/><use xlink:href="#N" transform="matrix(1,0,0,1,-215,-892.5) translate(0 20.444444444444443)"/><use xlink:href="#M" transform="matrix(1,0,0,1,25,-892.5) translate(0 20.444444444444443)"/><path d="M290-403a6 6 0 0 1 6-6h448a6 6 0 0 1 6 6v139a6 6 0 0 1-6 6H296a6 6 0 0 1-6-6z" fill="#fff"/><path d="M290-403a6 6 0 0 1 6-6h448a6 6 0 0 1 6 6v139a6 6 0 0 1-6 6H296a6 6 0 0 1-6-6z" fill="none"/><path d="M325.87-409h29.86m14.94 0h29.86m14.94 0h29.86m14.94 0h29.86m14.94 0h29.86m14.94 0h29.86m14.94 0h29.86m14.94 0h29.86m14.94 0h29.86m14.94 0H744l.94.07.9.22.88.35.8.5.72.6.6.72.5.8.37.88.23.9.07.95v15.44m0 15.45v30.88m0 15.44v30.9m0 15.44V-264l-.07.94-.22.9-.35.88-.5.8-.6.72-.72.6-.8.5-.88.37-.9.23-.95.07h-14.93m-14.94 0h-29.86m-14.94 0h-29.86m-14.94 0h-29.86m-14.94 0h-29.86m-14.94 0h-29.86m-14.94 0h-29.86m-14.94 0h-29.86m-14.94 0h-29.86m-14.94 0h-29.86m-14.94 0H296l-.94-.07-.9-.22-.88-.35-.8-.5-.72-.6-.6-.72-.5-.8-.37-.88-.23-.9-.07-.95v-15.44m0-15.45v-30.88m0-15.44v-30.9m0-15.44V-403l.07-.94.22-.9.35-.88.5-.8.6-.72.72-.6.8-.5.88-.37.9-.23.95-.07h14.93" stroke="#5e5e5e" stroke-width="3" fill="none"/><path d="M290-369h460" fill="none"/><path d="M290-369h15.33m15.34 0h30.66m15.34 0h30.66m15.34 0h30.66m15.34 0h30.66m15.34 0h30.66m15.34 0h30.66m15.34 0h30.66m15.34 0h30.66m15.34 0h30.66m15.34 0H750" stroke="#5e5e5e" stroke-width="3" fill="none"/><path d="M350-369v111" fill="none"/><path d="M350-369v18.5m0 18.5v37m0 18.5v18.5" stroke="#5e5e5e" stroke-width="3" fill="none"/><path d="M568-369v111" fill="none"/><path d="M568-369v18.5m0 18.5v37m0 18.5v18.5" stroke="#5e5e5e" stroke-width="3" fill="none"/><use xlink:href="#O" transform="matrix(1,0,0,1,300,-409) translate(103.45679012345678 24.444444444444443)"/><use xlink:href="#P" transform="matrix(1,0,0,1,300,-409) translate(234.19753086419752 24.444444444444443)"/><use xlink:href="#n" transform="matrix(1,0,0,1,300,-409) translate(265.0617283950617 24.444444444444443)"/><use xlink:href="#f" transform="matrix(1,0,0,1,295,-366.5) translate(10.833333333333336 20.444444444444443)"/><use xlink:href="#c" transform="matrix(1,0,0,1,355,-366.5) translate(0 20.444444444444443)"/><use xlink:href="#n" transform="matrix(1,0,0,1,355,-366.5) translate(28.333333333333332 20.444444444444443)"/><use xlink:href="#e" transform="matrix(1,0,0,1,573,-366.5) translate(0 20.444444444444443)"/><use xlink:href="#f" transform="matrix(1,0,0,1,295,-329.5) translate(10.833333333333336 20.444444444444443)"/><use xlink:href="#c" transform="matrix(1,0,0,1,355,-329.5) translate(0 20.444444444444443)"/><use xlink:href="#Q" transform="matrix(1,0,0,1,355,-329.5) translate(28.333333333333332 20.444444444444443)"/><use xlink:href="#e" transform="matrix(1,0,0,1,573,-329.5) translate(0 20.444444444444443)"/><use xlink:href="#R" transform="matrix(1,0,0,1,355,-292.5) translate(0 20.444444444444443)"/><use xlink:href="#S" transform="matrix(1,0,0,1,355,-292.5) translate(53.02469135802469 20.444444444444443)"/><use xlink:href="#T" transform="matrix(1,0,0,1,355,-292.5) translate(71.54320987654322 20.444444444444443)"/><use xlink:href="#U" transform="matrix(1,0,0,1,573,-292.5) translate(0 20.444444444444443)"/><path d="M860-1194a6 6 0 0 1 6-6h388a6 6 0 0 1 6 6v139a6 6 0 0 1-6 6H866a6 6 0 0 1-6-6z" fill="#fff"/><path d="M860-1194a6 6 0 0 1 6-6h388a6 6 0 0 1 6 6v139a6 6 0 0 1-6 6H866a6 6 0 0 1-6-6zM860-1160h400M948.7-1160v111M1144.8-1160v111" stroke="#5e5e5e" stroke-width="3" fill="none"/><use xlink:href="#V" transform="matrix(1,0,0,1,870,-1200) translate(149.96913580246914 24.444444444444443)"/><use xlink:href="#b" transform="matrix(1,0,0,1,865,-1157.5) translate(24.685185185185187 20.444444444444443)"/><use xlink:href="#c" transform="matrix(1,0,0,1,953.6890804401778,-1157.5) translate(0 20.444444444444443)"/><use xlink:href="#l" transform="matrix(1,0,0,1,953.6890804401778,-1157.5) translate(28.333333333333332 20.444444444444443)"/><use xlink:href="#e" transform="matrix(1,0,0,1,1149.784854302069,-1157.5) translate(0 20.444444444444443)"/><use xlink:href="#W" transform="matrix(1,0,0,1,953.6890804401778,-1120.5) translate(0 20.444444444444443)"/><use xlink:href="#e" transform="matrix(1,0,0,1,1149.784854302069,-1120.5) translate(0 20.444444444444443)"/><use xlink:href="#y" transform="matrix(1,0,0,1,953.6890804401778,-1083.5) translate(0 20.444444444444443)"/><use xlink:href="#p" transform="matrix(1,0,0,1,1149.784854302069,-1083.5) translate(0 20.444444444444443)"/><path d="M1060-1027.5v148" stroke="#5e5e5e" stroke-width="2" fill="none"/><path d="M1050-1037.5h20M1060-1047.5v20M1050-1027.5h20" stroke="#5e5e5e" stroke-width="2" fill="#fff"/><path d="M1050-859.95l10-20 10 20" stroke="#5e5e5e" stroke-width="2" fill="#fff" fill-opacity="0"/><path d="M1060-859.95v-20M1070-879.95h-20" stroke="#5e5e5e" stroke-width="2" fill="#fff"/><path d="M1190-281.5v-47a6 6 0 0 1 6-6h368a6 6 0 0 0 6-6v-47" stroke="#5e5e5e" stroke-width="2" fill="none"/><path d="M1200-271.5h-20M1190-261.5v-20M1200-281.5h-20M1560-397.5h20M1570-407.5v20M1560-387.5h20" stroke="#5e5e5e" stroke-width="2" fill="#fff"/><path d="M918.5-240h-14.62a6 6 0 0 1-6-6v-365.5" stroke="#5e5e5e" stroke-width="2" fill="none"/><path d="M928.5-250v20M938.5-240h-20M918.5-250v20M887.88-621.5h20M897.88-631.5v20M887.88-611.5h20" stroke="#5e5e5e" stroke-width="2" fill="#fff"/><path d="M1668.22-387.5v37a6 6 0 0 0 6 6H2044a6 6 0 0 1 6 6v37" stroke="#5e5e5e" stroke-width="2" fill="none"/><path d="M1658.22-397.5h20M1668.22-407.5v20M1658.22-387.5h20M2060-291.5h-20M2050-281.5v-20M2060-301.5h-20" stroke="#5e5e5e" stroke-width="2" fill="#fff"/><path d="M161.5-913.36H184a6 6 0 0 1 6 6v175.98a6 6 0 0 0 6 6h3.5" stroke="#5e5e5e" stroke-width="2" fill="none"/><path d="M151.5-903.36v-20M141.5-913.36h20M161.5-903.36v-20" stroke="#5e5e5e" stroke-width="2" fill="#fff"/><path d="M238.05-715.38l-20-10 20-10" stroke="#5e5e5e" stroke-width="2" fill="#fff" fill-opacity="0"/><path d="M238.05-725.38h-20M218.05-725.38c0 5.53-4.47 10-10 10-5.52 0-10-4.47-10-10 0-5.52 4.48-10 10-10 5.53 0 10 4.48 10 10" stroke="#5e5e5e" stroke-width="2" fill="#fff"/><path d="M818.5-688.1h-137" stroke="#5e5e5e" stroke-width="2" fill="none"/><path d="M828.5-698.1v20M838.5-688.1h-20M818.5-698.1v20" stroke="#5e5e5e" stroke-width="2" fill="#fff"/><path d="M661.95-698.1l20 10-20 10" stroke="#5e5e5e" stroke-width="2" fill="#fff" fill-opacity="0"/><path d="M661.95-688.1h20M681.95-678.1v-20" stroke="#5e5e5e" stroke-width="2" fill="#fff"/><path d="M542.3-574.12v65.8a6 6 0 0 0 6 6h46.54a6 6 0 0 1 6 6v46.82" stroke="#5e5e5e" stroke-width="2" fill="none"/><path d="M532.3-584.12h20M542.3-594.12v20M532.3-574.12h20" stroke="#5e5e5e" stroke-width="2" fill="#fff"/><path d="M590.84-410.95l10-20 10 20" stroke="#5e5e5e" stroke-width="2" fill="#fff" fill-opacity="0"/><path d="M600.84-410.95v-20M610.84-440.95c0 5.53-4.47 10-10 10-5.52 0-10-4.47-10-10 0-5.52 4.48-10 10-10 5.53 0 10 4.48 10 10" stroke="#5e5e5e" stroke-width="2" fill="#fff"/><path d="M386.85-94a6 6 0 0 1 6-6h468a6 6 0 0 1 6 6V45a6 6 0 0 1-6 6h-468a6 6 0 0 1-6-6z" fill="#fff"/><path d="M386.85-94a6 6 0 0 1 6-6h468a6 6 0 0 1 6 6V45a6 6 0 0 1-6 6h-468a6 6 0 0 1-6-6zM386.85-60h480M446.85-60V51M748.88-60V51" stroke="#5e5e5e" stroke-width="3" fill="none"/><use xlink:href="#X" transform="matrix(1,0,0,1,396.8460939361505,-99.99999999999999) translate(186.820987654321 24.444444444444443)"/><use xlink:href="#b" transform="matrix(1,0,0,1,391.8460939361505,-57.499999999999986) translate(10.185185185185187 20.444444444444443)"/><use xlink:href="#c" transform="matrix(1,0,0,1,451.8460939361505,-57.499999999999986) translate(0 20.444444444444443)"/><use xlink:href="#Q" transform="matrix(1,0,0,1,451.8460939361505,-57.499999999999986) translate(28.333333333333332 20.444444444444443)"/><use xlink:href="#e" transform="matrix(1,0,0,1,753.8746613735309,-57.499999999999986) translate(0 20.444444444444443)"/><use xlink:href="#f" transform="matrix(1,0,0,1,391.8460939361505,-20.499999999999986) translate(10.833333333333336 20.444444444444443)"/><use xlink:href="#c" transform="matrix(1,0,0,1,451.8460939361505,-20.499999999999986) translate(0 20.444444444444443)"/><use xlink:href="#t" transform="matrix(1,0,0,1,451.8460939361505,-20.499999999999986) translate(28.333333333333332 20.444444444444443)"/><use xlink:href="#r" transform="matrix(1,0,0,1,451.8460939361505,-20.499999999999986) translate(91.23456790123456 20.444444444444443)"/><use xlink:href="#s" transform="matrix(1,0,0,1,451.8460939361505,-20.499999999999986) translate(122.09876543209876 20.444444444444443)"/><g><use xlink:href="#e" transform="matrix(1,0,0,1,753.8746613735309,-20.499999999999986) translate(0 20.444444444444443)"/></g><g><use xlink:href="#y" transform="matrix(1,0,0,1,451.8460939361505,16.500000000000014) translate(0 20.444444444444443)"/></g><g><use xlink:href="#p" transform="matrix(1,0,0,1,753.8746613735309,16.500000000000014) translate(0 20.444444444444443)"/></g><path d="M520-217.5v96" stroke="#5e5e5e" stroke-width="2" fill="none"/><path d="M530-256.05l-10 20-10-20" stroke="#5e5e5e" stroke-width="2" fill="#fff" fill-opacity="0"/><path d="M520-256.05v20M530-226.05c0 5.52-4.48 10-10 10s-10-4.48-10-10c0-5.53 4.48-10 10-10s10 4.47 10 10M530-111.5h-20M520-101.5v-20M530-121.5h-20" stroke="#5e5e5e" stroke-width="2" fill="#fff"/><path d="M218.5-650.85H20.2a.2.2 0 0 1-.2-.2.2.2 0 0 0-.2-.18h-179.3" stroke="#5e5e5e" stroke-width="2" fill="none"/><path d="M228.5-660.85v20M238.5-650.85h-20M218.5-660.85v20" stroke="#5e5e5e" stroke-width="2" fill="#fff"/><path d="M-198.05-661.23l20 10-20 10" stroke="#5e5e5e" stroke-width="2" fill="#fff" fill-opacity="0"/><path d="M-198.05-651.23h20M-158.05-651.23c0 5.53-4.48 10-10 10-5.53 0-10-4.47-10-10 0-5.52 4.47-10 10-10 5.52 0 10 4.48 10 10" stroke="#5e5e5e" stroke-width="2" fill="#fff"/><path d="M-467.3-121.52V-592.5" stroke="#5e5e5e" stroke-width="2" fill="none"/><path d="M-457.3-111.52h-20M-467.3-101.52v-20M-457.3-121.52h-20" stroke="#5e5e5e" stroke-width="2" fill="#fff"/><path d="M-457.3-631.05l-10 20-10-20" stroke="#5e5e5e" stroke-width="2" fill="#fff" fill-opacity="0"/><path d="M-467.3-631.05v20M-457.3-601.05c0 5.52-4.48 10-10 10-5.53 0-10-4.48-10-10 0-5.53 4.47-10 10-10 5.52 0 10 4.47 10 10" stroke="#5e5e5e" stroke-width="2" fill="#fff"/><path d="M346.35-4.38H-216.8" stroke="#5e5e5e" stroke-width="2" fill="none"/><path d="M384.9 5.63l-20-10 20-10" stroke="#5e5e5e" stroke-width="2" fill="#fff" fill-opacity="0"/><path d="M384.9-4.38h-20M364.9-4.38c0 5.53-4.48 10-10 10s-10-4.47-10-10c0-5.52 4.48-10 10-10s10 4.48 10 10M-245.8 5.63v-20M-255.8-4.38h20M-215.8-4.38c0 5.53-4.48 10-10 10-5.53 0-10-4.47-10-10 0-5.52 4.47-10 10-10 5.52 0 10 4.48 10 10" stroke="#5e5e5e" stroke-width="2" fill="#fff"/><path d="M542.3-594.12" stroke="#5e5e5e" stroke-width="2" fill="none"/><path d="M522.3-604.12v20M542.3-594.12h-20" stroke="#5e5e5e" stroke-width="2" fill="#fff"/><path d="M541.85-584.12l-20-10 20-10" stroke="#5e5e5e" stroke-width="2" fill="#fff" fill-opacity="0"/><path d="M541.85-594.12h-20" stroke="#5e5e5e" stroke-width="2" fill="#fff"/><path d="M2050-107.5v14a6 6 0 0 1-6 6h-848a6 6 0 0 1-6-6v-31" stroke="#5e5e5e" stroke-width="2" fill="none"/><path d="M2060-127.05l-10 20-10-20" stroke="#5e5e5e" stroke-width="2" fill="#fff" fill-opacity="0"/><path d="M2050-127.05v20M2040-107.05h20M1180-134.5h20M1190-144.5v20M1180-124.5h20" stroke="#5e5e5e" stroke-width="2" fill="#fff"/><defs><path fill="#333" d="M30 0v-248h187v28H63v79h144v27H63v87h162V0H30" id="Y"/><path fill="#333" d="M117-194c89-4 53 116 60 194h-32v-121c0-31-8-49-39-48C34-167 62-67 57 0H25l-1-190h30c1 10-1 24 2 32 11-22 29-35 61-36" id="Z"/><path fill="#333" d="M101-234c-31-9-42 10-38 44h38v23H63V0H32v-167H5v-23h27c-7-52 17-82 69-68v24" id="aa"/><path fill="#333" d="M100-194c63 0 86 42 84 106H49c0 40 14 67 53 68 26 1 43-12 49-29l28 8c-11 28-37 45-77 45C44 4 14-33 15-96c1-61 26-98 85-98zm52 81c6-60-76-77-97-28-3 7-6 17-6 28h103" id="ab"/><path fill="#333" d="M114-163C36-179 61-72 57 0H25l-1-190h30c1 12-1 29 2 39 6-27 23-49 58-41v29" id="ac"/><path fill="#333" d="M210-169c-67 3-38 105-44 169h-31v-121c0-29-5-50-35-48C34-165 62-65 56 0H25l-1-190h30c1 10-1 24 2 32 10-44 99-50 107 0 11-21 27-35 58-36 85-2 47 119 55 194h-31v-121c0-29-5-49-35-48" id="ad"/><path fill="#333" d="M24-231v-30h32v30H24zM24 0v-190h32V0H24" id="ae"/><path fill="#333" d="M141-36C126-15 110 5 73 4 37 3 15-17 15-53c-1-64 63-63 125-63 3-35-9-54-41-54-24 1-41 7-42 31l-33-3c5-37 33-52 76-52 45 0 72 20 72 64v82c-1 20 7 32 28 27v20c-31 9-61-2-59-35zM48-53c0 20 12 33 32 33 41-3 63-29 60-74-43 2-92-5-92 41" id="af"/><g id="a"><use transform="matrix(0.06172839506172839,0,0,0.06172839506172839,0,0)" xlink:href="#Y"/><use transform="matrix(0.06172839506172839,0,0,0.06172839506172839,14.814814814814813,0)" xlink:href="#Z"/><use transform="matrix(0.06172839506172839,0,0,0.06172839506172839,27.160493827160494,0)" xlink:href="#aa"/><use transform="matrix(0.06172839506172839,0,0,0.06172839506172839,33.333333333333336,0)" xlink:href="#ab"/><use transform="matrix(0.06172839506172839,0,0,0.06172839506172839,45.67901234567901,0)" xlink:href="#ac"/><use transform="matrix(0.06172839506172839,0,0,0.06172839506172839,53.02469135802469,0)" xlink:href="#ad"/><use transform="matrix(0.06172839506172839,0,0,0.06172839506172839,71.48148148148148,0)" xlink:href="#ab"/><use transform="matrix(0.06172839506172839,0,0,0.06172839506172839,83.82716049382717,0)" xlink:href="#ae"/><use transform="matrix(0.06172839506172839,0,0,0.06172839506172839,88.70370370370371,0)" xlink:href="#ac"/><use transform="matrix(0.06172839506172839,0,0,0.06172839506172839,96.0493827160494,0)" xlink:href="#af"/></g><path fill="#333" d="M30-248c87 1 191-15 191 75 0 78-77 80-158 76V0H30v-248zm33 125c57 0 124 11 124-50 0-59-68-47-124-48v98" id="ag"/><path fill="#333" d="M194 0L95-120 63-95V0H30v-248h33v124l119-124h40L117-140 236 0h-42" id="ah"/><g id="b"><use transform="matrix(0.06172839506172839,0,0,0.06172839506172839,0,0)" xlink:href="#ag"/><use transform="matrix(0.06172839506172839,0,0,0.06172839506172839,14.814814814814813,0)" xlink:href="#ah"/></g><path fill="#333" d="M33 0v-248h34V0H33" id="ai"/><path fill="#333" d="M30-248c118-7 216 8 213 122C240-48 200 0 122 0H30v-248zM63-27c89 8 146-16 146-99s-60-101-146-95v194" id="aj"/><g id="c"><use transform="matrix(0.06172839506172839,0,0,0.06172839506172839,0,0)" xlink:href="#ai"/><use transform="matrix(0.06172839506172839,0,0,0.06172839506172839,6.172839506172839,0)" xlink:href="#aj"/></g><g id="d"><use transform="matrix(0.06172839506172839,0,0,0.06172839506172839,0,0)" xlink:href="#Y"/><use transform="matrix(0.06172839506172839,0,0,0.06172839506172839,14.814814814814813,0)" xlink:href="#Z"/><use transform="matrix(0.06172839506172839,0,0,0.06172839506172839,27.160493827160494,0)" xlink:href="#aa"/><use transform="matrix(0.06172839506172839,0,0,0.06172839506172839,33.333333333333336,0)" xlink:href="#ab"/><use transform="matrix(0.06172839506172839,0,0,0.06172839506172839,45.67901234567901,0)" xlink:href="#ac"/><use transform="matrix(0.06172839506172839,0,0,0.06172839506172839,53.02469135802469,0)" xlink:href="#ad"/><use transform="matrix(0.06172839506172839,0,0,0.06172839506172839,71.48148148148148,0)" xlink:href="#ab"/><use transform="matrix(0.06172839506172839,0,0,0.06172839506172839,83.82716049382717,0)" xlink:href="#ae"/><use transform="matrix(0.06172839506172839,0,0,0.06172839506172839,88.70370370370371,0)" xlink:href="#ac"/><use transform="matrix(0.06172839506172839,0,0,0.06172839506172839,96.0493827160494,0)" xlink:href="#af"/></g><path fill="#333" d="M190 0L58-211 59 0H30v-248h39L202-35l-2-213h31V0h-41" id="ak"/><path fill="#333" d="M127-220V0H93v-220H8v-28h204v28h-85" id="al"/><g id="e"><use transform="matrix(0.06172839506172839,0,0,0.06172839506172839,0,0)" xlink:href="#ai"/><use transform="matrix(0.06172839506172839,0,0,0.06172839506172839,6.172839506172839,0)" xlink:href="#ak"/><use transform="matrix(0.06172839506172839,0,0,0.06172839506172839,22.160493827160494,0)" xlink:href="#al"/></g><path fill="#333" d="M63-220v92h138v28H63V0H30v-248h175v28H63" id="am"/><g id="f"><use transform="matrix(0.06172839506172839,0,0,0.06172839506172839,0,0)" xlink:href="#am"/><use transform="matrix(0.06172839506172839,0,0,0.06172839506172839,13.518518518518517,0)" xlink:href="#ah"/></g><g id="g"><use transform="matrix(0.06172839506172839,0,0,0.06172839506172839,0,0)" xlink:href="#Y"/><use transform="matrix(0.06172839506172839,0,0,0.06172839506172839,14.814814814814813,0)" xlink:href="#Z"/><use transform="matrix(0.06172839506172839,0,0,0.06172839506172839,27.160493827160494,0)" xlink:href="#aa"/><use transform="matrix(0.06172839506172839,0,0,0.06172839506172839,33.333333333333336,0)" xlink:href="#ab"/><use transform="matrix(0.06172839506172839,0,0,0.06172839506172839,45.67901234567901,0)" xlink:href="#ac"/><use transform="matrix(0.06172839506172839,0,0,0.06172839506172839,53.02469135802469,0)" xlink:href="#ad"/><use transform="matrix(0.06172839506172839,0,0,0.06172839506172839,71.48148148148148,0)" xlink:href="#ab"/><use transform="matrix(0.06172839506172839,0,0,0.06172839506172839,83.82716049382717,0)" xlink:href="#ae"/><use transform="matrix(0.06172839506172839,0,0,0.06172839506172839,88.70370370370371,0)" xlink:href="#ac"/><use transform="matrix(0.06172839506172839,0,0,0.06172839506172839,96.0493827160494,0)" xlink:href="#af"/></g><path fill="#333" d="M212-179c-10-28-35-45-73-45-59 0-87 40-87 99 0 60 29 101 89 101 43 0 62-24 78-52l27 14C228-24 195 4 139 4 59 4 22-46 18-125c-6-104 99-153 187-111 19 9 31 26 39 46" id="an"/><path fill="#333" d="M106-169C34-169 62-67 57 0H25v-261h32l-1 103c12-21 28-36 61-36 89 0 53 116 60 194h-32v-121c2-32-8-49-39-48" id="ao"/><g id="h"><use transform="matrix(0.06172839506172839,0,0,0.06172839506172839,0,0)" xlink:href="#an"/><use transform="matrix(0.06172839506172839,0,0,0.06172839506172839,15.987654320987653,0)" xlink:href="#ao"/><use transform="matrix(0.06172839506172839,0,0,0.06172839506172839,28.333333333333332,0)" xlink:href="#ab"/><use transform="matrix(0.06172839506172839,0,0,0.06172839506172839,40.67901234567901,0)" xlink:href="#aa"/><use transform="matrix(0.06172839506172839,0,0,0.06172839506172839,46.851851851851855,0)" xlink:href="#ab"/></g><path fill="#333" d="M85-194c31 0 48 13 60 33l-1-100h32l1 261h-30c-2-10 0-23-3-31C134-8 116 4 85 4 32 4 16-35 15-94c0-66 23-100 70-100zm9 24c-40 0-46 34-46 75 0 40 6 74 45 74 42 0 51-32 51-76 0-42-9-74-50-73" id="ap"/><path fill="#333" d="M59-47c-2 24 18 29 38 22v24C64 9 27 4 27-40v-127H5v-23h24l9-43h21v43h35v23H59v120" id="aq"/><path fill="#333" d="M96-169c-40 0-48 33-48 73s9 75 48 75c24 0 41-14 43-38l32 2c-6 37-31 61-74 61-59 0-76-41-82-99-10-93 101-131 147-64 4 7 5 14 7 22l-32 3c-4-21-16-35-41-35" id="ar"/><path fill="#333" d="M96-169c-40 0-48 33-48 73s9 75 48 75c24 0 41-14 43-38l32 2c-6 37-31 61-74 61-59 0-76-41-82-99-10-93 101-131 147-64 4 7 5 14 7 22l-32 3c-4-21-16-35-41-35zm3 187c19-1 33 8 33 26 0 31-30 33-64 32V58c18 2 39 4 41-13 1-15-18-13-34-13L87 0h19" id="as"/><path fill="#333" d="M141-36C126-15 110 5 73 4 37 3 15-17 15-53c-1-64 63-63 125-63 3-35-9-54-41-54-24 1-41 7-42 31l-33-3c5-37 33-52 76-52 45 0 72 20 72 64v82c-1 20 7 32 28 27v20c-31 9-61-2-59-35zM48-53c0 20 12 33 32 33 41-3 63-29 60-74-43 2-92-5-92 41zm117-205c-3 23-9 48-36 47-26-1-65-44-74 0H39c4-23 8-48 36-47s64 44 74 0h16" id="at"/><path fill="#333" d="M100-194c62-1 85 37 85 99 1 63-27 99-86 99S16-35 15-95c0-66 28-99 85-99zM99-20c44 1 53-31 53-75 0-43-8-75-51-75s-53 32-53 75 10 74 51 75" id="au"/><g id="i"><use transform="matrix(0.06172839506172839,0,0,0.06172839506172839,0,0)" xlink:href="#ai"/><use transform="matrix(0.06172839506172839,0,0,0.06172839506172839,6.172839506172839,0)" xlink:href="#ap"/><use transform="matrix(0.06172839506172839,0,0,0.06172839506172839,18.51851851851852,0)" xlink:href="#ab"/><use transform="matrix(0.06172839506172839,0,0,0.06172839506172839,30.864197530864196,0)" xlink:href="#Z"/><use transform="matrix(0.06172839506172839,0,0,0.06172839506172839,43.20987654320987,0)" xlink:href="#aq"/><use transform="matrix(0.06172839506172839,0,0,0.06172839506172839,49.382716049382715,0)" xlink:href="#ae"/><use transform="matrix(0.06172839506172839,0,0,0.06172839506172839,54.25925925925926,0)" xlink:href="#aa"/><use transform="matrix(0.06172839506172839,0,0,0.06172839506172839,60.4320987654321,0)" xlink:href="#ae"/><use transform="matrix(0.06172839506172839,0,0,0.06172839506172839,65.30864197530865,0)" xlink:href="#ar"/><use transform="matrix(0.06172839506172839,0,0,0.06172839506172839,76.41975308641976,0)" xlink:href="#af"/><use transform="matrix(0.06172839506172839,0,0,0.06172839506172839,88.76543209876544,0)" xlink:href="#as"/><use transform="matrix(0.06172839506172839,0,0,0.06172839506172839,99.87654320987656,0)" xlink:href="#at"/><use transform="matrix(0.06172839506172839,0,0,0.06172839506172839,112.22222222222224,0)" xlink:href="#au"/></g><path fill="#333" d="M205 0l-28-72H64L36 0H1l101-248h38L239 0h-34zm-38-99l-47-123c-12 45-31 82-46 123h93" id="av"/><path fill="#333" d="M24 0v-261h32V0H24" id="aw"/><g id="j"><use transform="matrix(0.06172839506172839,0,0,0.06172839506172839,0,0)" xlink:href="#av"/><use transform="matrix(0.06172839506172839,0,0,0.06172839506172839,14.814814814814813,0)" xlink:href="#aw"/><use transform="matrix(0.06172839506172839,0,0,0.06172839506172839,19.691358024691354,0)" xlink:href="#af"/></g><g id="k"><use transform="matrix(0.06172839506172839,0,0,0.06172839506172839,0,0)" xlink:href="#av"/><use transform="matrix(0.06172839506172839,0,0,0.06172839506172839,14.814814814814813,0)" xlink:href="#aw"/><use transform="matrix(0.06172839506172839,0,0,0.06172839506172839,19.691358024691354,0)" xlink:href="#af"/></g><path fill="#333" d="M197 0v-115H63V0H30v-248h33v105h134v-105h34V0h-34" id="ax"/><path fill="#333" d="M135-143c-3-34-86-38-87 0 15 53 115 12 119 90S17 21 10-45l28-5c4 36 97 45 98 0-10-56-113-15-118-90-4-57 82-63 122-42 12 7 21 19 24 35" id="ay"/><path fill="#333" d="M115-194c55 1 70 41 70 98S169 2 115 4C84 4 66-9 55-30l1 105H24l-1-265h31l2 30c10-21 28-34 59-34zm-8 174c40 0 45-34 45-75s-6-73-45-74c-42 0-51 32-51 76 0 43 10 73 51 73" id="az"/><g id="l"><use transform="matrix(0.06172839506172839,0,0,0.06172839506172839,0,0)" xlink:href="#ax"/><use transform="matrix(0.06172839506172839,0,0,0.06172839506172839,15.987654320987653,0)" xlink:href="#au"/><use transform="matrix(0.06172839506172839,0,0,0.06172839506172839,28.333333333333332,0)" xlink:href="#ay"/><use transform="matrix(0.06172839506172839,0,0,0.06172839506172839,39.44444444444444,0)" xlink:href="#az"/><use transform="matrix(0.06172839506172839,0,0,0.06172839506172839,51.79012345679012,0)" xlink:href="#ae"/><use transform="matrix(0.06172839506172839,0,0,0.06172839506172839,56.666666666666664,0)" xlink:href="#aq"/><use transform="matrix(0.06172839506172839,0,0,0.06172839506172839,62.839506172839506,0)" xlink:href="#af"/><use transform="matrix(0.06172839506172839,0,0,0.06172839506172839,75.18518518518519,0)" xlink:href="#aw"/></g><g id="m"><use transform="matrix(0.06172839506172839,0,0,0.06172839506172839,0,0)" xlink:href="#al"/><use transform="matrix(0.06172839506172839,0,0,0.06172839506172839,12.716049382716047,0)" xlink:href="#ae"/><use transform="matrix(0.06172839506172839,0,0,0.06172839506172839,17.592592592592588,0)" xlink:href="#az"/><use transform="matrix(0.06172839506172839,0,0,0.06172839506172839,29.938271604938265,0)" xlink:href="#au"/></g><path fill="#333" d="M240 0l2-218c-23 76-54 145-80 218h-23L58-218 59 0H30v-248h44l77 211c21-75 51-140 76-211h43V0h-30" id="aA"/><path fill="#333" d="M100-194c63 0 86 42 84 106H49c0 40 14 67 53 68 26 1 43-12 49-29l28 8c-11 28-37 45-77 45C44 4 14-33 15-96c1-61 26-98 85-98zm52 81c6-60-76-77-97-28-3 7-6 17-6 28h103zm-74-98c8-23 27-35 38-54h36v5l-58 49H78" id="aB"/><g id="n"><use transform="matrix(0.06172839506172839,0,0,0.06172839506172839,0,0)" xlink:href="#aA"/><use transform="matrix(0.06172839506172839,0,0,0.06172839506172839,18.456790123456788,0)" xlink:href="#aB"/><use transform="matrix(0.06172839506172839,0,0,0.06172839506172839,30.80246913580247,0)" xlink:href="#ap"/><use transform="matrix(0.06172839506172839,0,0,0.06172839506172839,43.148148148148145,0)" xlink:href="#ae"/><use transform="matrix(0.06172839506172839,0,0,0.06172839506172839,48.02469135802469,0)" xlink:href="#ar"/><use transform="matrix(0.06172839506172839,0,0,0.06172839506172839,59.1358024691358,0)" xlink:href="#au"/></g><g id="o"><use transform="matrix(0.06172839506172839,0,0,0.06172839506172839,0,0)" xlink:href="#ak"/><use transform="matrix(0.06172839506172839,0,0,0.06172839506172839,15.987654320987653,0)" xlink:href="#au"/><use transform="matrix(0.06172839506172839,0,0,0.06172839506172839,28.333333333333332,0)" xlink:href="#ad"/><use transform="matrix(0.06172839506172839,0,0,0.06172839506172839,46.79012345679012,0)" xlink:href="#ab"/></g><path fill="#333" d="M137 0h-34L2-248h35l83 218 83-218h36" id="aC"/><path fill="#333" d="M233-177c-1 41-23 64-60 70L243 0h-38l-65-103H63V0H30v-248c88 3 205-21 203 71zM63-129c60-2 137 13 137-47 0-61-80-42-137-45v92" id="aD"/><g id="p"><use transform="matrix(0.06172839506172839,0,0,0.06172839506172839,0,0)" xlink:href="#aC"/><use transform="matrix(0.06172839506172839,0,0,0.06172839506172839,13.148148148148147,0)" xlink:href="#av"/><use transform="matrix(0.06172839506172839,0,0,0.06172839506172839,27.962962962962962,0)" xlink:href="#aD"/><use transform="matrix(0.06172839506172839,0,0,0.06172839506172839,43.95061728395061,0)" xlink:href="#an"/><use transform="matrix(0.06172839506172839,0,0,0.06172839506172839,59.938271604938265,0)" xlink:href="#ax"/><use transform="matrix(0.06172839506172839,0,0,0.06172839506172839,75.92592592592592,0)" xlink:href="#av"/><use transform="matrix(0.06172839506172839,0,0,0.06172839506172839,90.74074074074073,0)" xlink:href="#aD"/></g><g id="q"><use transform="matrix(0.06172839506172839,0,0,0.06172839506172839,0,0)" xlink:href="#ag"/><use transform="matrix(0.06172839506172839,0,0,0.06172839506172839,14.814814814814813,0)" xlink:href="#aw"/><use transform="matrix(0.06172839506172839,0,0,0.06172839506172839,19.691358024691354,0)" xlink:href="#af"/><use transform="matrix(0.06172839506172839,0,0,0.06172839506172839,32.03703703703703,0)" xlink:href="#Z"/><use transform="matrix(0.06172839506172839,0,0,0.06172839506172839,44.38271604938271,0)" xlink:href="#au"/></g><g id="r"><use transform="matrix(0.06172839506172839,0,0,0.06172839506172839,0,0)" xlink:href="#ap"/><use transform="matrix(0.06172839506172839,0,0,0.06172839506172839,12.345679012345679,0)" xlink:href="#ab"/></g><path fill="#333" d="M185-189c-5-48-123-54-124 2 14 75 158 14 163 119 3 78-121 87-175 55-17-10-28-26-33-46l33-7c5 56 141 63 141-1 0-78-155-14-162-118-5-82 145-84 179-34 5 7 8 16 11 25" id="aE"/><path fill="#333" d="M85 4C-4 8 31-112 24-190h32v120c0 31 7 50 39 49 72-2 45-101 50-169h31l1 190h-30c-1-10 1-25-2-33-11 22-28 36-60 37zM73-211c8-23 27-35 38-54h36v5l-58 49H73" id="aF"/><g id="s"><use transform="matrix(0.06172839506172839,0,0,0.06172839506172839,0,0)" xlink:href="#aE"/><use transform="matrix(0.06172839506172839,0,0,0.06172839506172839,14.814814814814813,0)" xlink:href="#af"/><use transform="matrix(0.06172839506172839,0,0,0.06172839506172839,27.160493827160494,0)" xlink:href="#aF"/><use transform="matrix(0.06172839506172839,0,0,0.06172839506172839,39.50617283950617,0)" xlink:href="#ap"/><use transform="matrix(0.06172839506172839,0,0,0.06172839506172839,51.85185185185185,0)" xlink:href="#ab"/></g><g id="t"><use transform="matrix(0.06172839506172839,0,0,0.06172839506172839,0,0)" xlink:href="#ag"/><use transform="matrix(0.06172839506172839,0,0,0.06172839506172839,14.814814814814813,0)" xlink:href="#aw"/><use transform="matrix(0.06172839506172839,0,0,0.06172839506172839,19.691358024691354,0)" xlink:href="#af"/><use transform="matrix(0.06172839506172839,0,0,0.06172839506172839,32.03703703703703,0)" xlink:href="#Z"/><use transform="matrix(0.06172839506172839,0,0,0.06172839506172839,44.38271604938271,0)" xlink:href="#au"/></g><g id="u"><use transform="matrix(0.06172839506172839,0,0,0.06172839506172839,0,0)" xlink:href="#ak"/><use transform="matrix(0.06172839506172839,0,0,0.06172839506172839,15.987654320987653,0)" xlink:href="#au"/><use transform="matrix(0.06172839506172839,0,0,0.06172839506172839,28.333333333333332,0)" xlink:href="#ad"/><use transform="matrix(0.06172839506172839,0,0,0.06172839506172839,46.79012345679012,0)" xlink:href="#ab"/></g><g id="v"><use transform="matrix(0.06172839506172839,0,0,0.06172839506172839,0,0)" xlink:href="#al"/><use transform="matrix(0.06172839506172839,0,0,0.06172839506172839,11.049382716049381,0)" xlink:href="#ab"/><use transform="matrix(0.06172839506172839,0,0,0.06172839506172839,23.39506172839506,0)" xlink:href="#aw"/><use transform="matrix(0.06172839506172839,0,0,0.06172839506172839,28.2716049382716,0)" xlink:href="#ab"/><use transform="matrix(0.06172839506172839,0,0,0.06172839506172839,40.61728395061728,0)" xlink:href="#aa"/><use transform="matrix(0.06172839506172839,0,0,0.06172839506172839,46.79012345679012,0)" xlink:href="#au"/><use transform="matrix(0.06172839506172839,0,0,0.06172839506172839,59.1358024691358,0)" xlink:href="#Z"/><use transform="matrix(0.06172839506172839,0,0,0.06172839506172839,71.48148148148148,0)" xlink:href="#ab"/></g><g id="w"><use transform="matrix(0.06172839506172839,0,0,0.06172839506172839,0,0)" xlink:href="#aA"/><use transform="matrix(0.06172839506172839,0,0,0.06172839506172839,18.456790123456788,0)" xlink:href="#aB"/><use transform="matrix(0.06172839506172839,0,0,0.06172839506172839,30.80246913580247,0)" xlink:href="#ap"/><use transform="matrix(0.06172839506172839,0,0,0.06172839506172839,43.148148148148145,0)" xlink:href="#ae"/><use transform="matrix(0.06172839506172839,0,0,0.06172839506172839,48.02469135802469,0)" xlink:href="#ar"/><use transform="matrix(0.06172839506172839,0,0,0.06172839506172839,59.1358024691358,0)" xlink:href="#au"/></g><g id="x"><use transform="matrix(0.06172839506172839,0,0,0.06172839506172839,0,0)" xlink:href="#Y"/><use transform="matrix(0.06172839506172839,0,0,0.06172839506172839,14.814814814814813,0)" xlink:href="#ay"/><use transform="matrix(0.06172839506172839,0,0,0.06172839506172839,25.925925925925924,0)" xlink:href="#az"/><use transform="matrix(0.06172839506172839,0,0,0.06172839506172839,38.2716049382716,0)" xlink:href="#ab"/><use transform="matrix(0.06172839506172839,0,0,0.06172839506172839,50.61728395061728,0)" xlink:href="#ar"/><use transform="matrix(0.06172839506172839,0,0,0.06172839506172839,61.72839506172839,0)" xlink:href="#ae"/><use transform="matrix(0.06172839506172839,0,0,0.06172839506172839,66.60493827160494,0)" xlink:href="#af"/><use transform="matrix(0.06172839506172839,0,0,0.06172839506172839,78.95061728395062,0)" xlink:href="#aw"/><use transform="matrix(0.06172839506172839,0,0,0.06172839506172839,83.82716049382717,0)" xlink:href="#ae"/><use transform="matrix(0.06172839506172839,0,0,0.06172839506172839,88.70370370370371,0)" xlink:href="#ap"/><use transform="matrix(0.06172839506172839,0,0,0.06172839506172839,101.0493827160494,0)" xlink:href="#af"/><use transform="matrix(0.06172839506172839,0,0,0.06172839506172839,113.39506172839508,0)" xlink:href="#ap"/><use transform="matrix(0.06172839506172839,0,0,0.06172839506172839,125.74074074074076,0)" xlink:href="#ab"/></g><g id="y"><use transform="matrix(0.06172839506172839,0,0,0.06172839506172839,0,0)" xlink:href="#ak"/><use transform="matrix(0.06172839506172839,0,0,0.06172839506172839,15.987654320987653,0)" xlink:href="#au"/><use transform="matrix(0.06172839506172839,0,0,0.06172839506172839,28.333333333333332,0)" xlink:href="#ad"/><use transform="matrix(0.06172839506172839,0,0,0.06172839506172839,46.79012345679012,0)" xlink:href="#ab"/></g><g id="z"><use transform="matrix(0.06172839506172839,0,0,0.06172839506172839,0,0)" xlink:href="#an"/><use transform="matrix(0.06172839506172839,0,0,0.06172839506172839,15.987654320987653,0)" xlink:href="#aD"/><use transform="matrix(0.06172839506172839,0,0,0.06172839506172839,31.975308641975307,0)" xlink:href="#aA"/></g><g id="A"><use transform="matrix(0.06172839506172839,0,0,0.06172839506172839,0,0)" xlink:href="#Y"/><use transform="matrix(0.06172839506172839,0,0,0.06172839506172839,14.814814814814813,0)" xlink:href="#Z"/><use transform="matrix(0.06172839506172839,0,0,0.06172839506172839,27.160493827160494,0)" xlink:href="#aa"/><use transform="matrix(0.06172839506172839,0,0,0.06172839506172839,33.333333333333336,0)" xlink:href="#ab"/><use transform="matrix(0.06172839506172839,0,0,0.06172839506172839,45.67901234567901,0)" xlink:href="#ac"/><use transform="matrix(0.06172839506172839,0,0,0.06172839506172839,53.02469135802469,0)" xlink:href="#ad"/><use transform="matrix(0.06172839506172839,0,0,0.06172839506172839,71.48148148148148,0)" xlink:href="#ab"/><use transform="matrix(0.06172839506172839,0,0,0.06172839506172839,83.82716049382717,0)" xlink:href="#ae"/><use transform="matrix(0.06172839506172839,0,0,0.06172839506172839,88.70370370370371,0)" xlink:href="#ac"/><use transform="matrix(0.06172839506172839,0,0,0.06172839506172839,96.0493827160494,0)" xlink:href="#af"/></g><g id="B"><use transform="matrix(0.06172839506172839,0,0,0.06172839506172839,0,0)" xlink:href="#ai"/><use transform="matrix(0.06172839506172839,0,0,0.06172839506172839,6.172839506172839,0)" xlink:href="#ap"/><use transform="matrix(0.06172839506172839,0,0,0.06172839506172839,18.51851851851852,0)" xlink:href="#ab"/><use transform="matrix(0.06172839506172839,0,0,0.06172839506172839,30.864197530864196,0)" xlink:href="#Z"/><use transform="matrix(0.06172839506172839,0,0,0.06172839506172839,43.20987654320987,0)" xlink:href="#aq"/><use transform="matrix(0.06172839506172839,0,0,0.06172839506172839,49.382716049382715,0)" xlink:href="#ae"/><use transform="matrix(0.06172839506172839,0,0,0.06172839506172839,54.25925925925926,0)" xlink:href="#aa"/><use transform="matrix(0.06172839506172839,0,0,0.06172839506172839,60.4320987654321,0)" xlink:href="#ae"/><use transform="matrix(0.06172839506172839,0,0,0.06172839506172839,65.30864197530865,0)" xlink:href="#ar"/><use transform="matrix(0.06172839506172839,0,0,0.06172839506172839,76.41975308641976,0)" xlink:href="#af"/><use transform="matrix(0.06172839506172839,0,0,0.06172839506172839,88.76543209876544,0)" xlink:href="#as"/><use transform="matrix(0.06172839506172839,0,0,0.06172839506172839,99.87654320987656,0)" xlink:href="#af"/><use transform="matrix(0.06172839506172839,0,0,0.06172839506172839,112.22222222222224,0)" xlink:href="#au"/></g><g id="C"><use transform="matrix(0.06172839506172839,0,0,0.06172839506172839,0,0)" xlink:href="#an"/><use transform="matrix(0.06172839506172839,0,0,0.06172839506172839,15.987654320987653,0)" xlink:href="#aD"/><use transform="matrix(0.06172839506172839,0,0,0.06172839506172839,31.975308641975307,0)" xlink:href="#Y"/></g><g id="D"><use transform="matrix(0.06172839506172839,0,0,0.06172839506172839,0,0)" xlink:href="#aA"/><use transform="matrix(0.06172839506172839,0,0,0.06172839506172839,18.456790123456788,0)" xlink:href="#ab"/><use transform="matrix(0.06172839506172839,0,0,0.06172839506172839,30.80246913580247,0)" xlink:href="#ap"/><use transform="matrix(0.06172839506172839,0,0,0.06172839506172839,43.148148148148145,0)" xlink:href="#ae"/><use transform="matrix(0.06172839506172839,0,0,0.06172839506172839,48.02469135802469,0)" xlink:href="#ar"/><use transform="matrix(0.06172839506172839,0,0,0.06172839506172839,59.1358024691358,0)" xlink:href="#au"/></g><g id="E"><use transform="matrix(0.06172839506172839,0,0,0.06172839506172839,0,0)" xlink:href="#av"/><use transform="matrix(0.06172839506172839,0,0,0.06172839506172839,14.814814814814813,0)" xlink:href="#aq"/><use transform="matrix(0.06172839506172839,0,0,0.06172839506172839,20.98765432098765,0)" xlink:href="#ab"/><use transform="matrix(0.06172839506172839,0,0,0.06172839506172839,33.33333333333333,0)" xlink:href="#Z"/><use transform="matrix(0.06172839506172839,0,0,0.06172839506172839,45.679012345679006,0)" xlink:href="#ap"/><use transform="matrix(0.06172839506172839,0,0,0.06172839506172839,58.02469135802468,0)" xlink:href="#ab"/></g><g id="F"><use transform="matrix(0.06172839506172839,0,0,0.06172839506172839,0,0)" xlink:href="#aA"/><use transform="matrix(0.06172839506172839,0,0,0.06172839506172839,18.456790123456788,0)" xlink:href="#ab"/><use transform="matrix(0.06172839506172839,0,0,0.06172839506172839,30.80246913580247,0)" xlink:href="#ap"/><use transform="matrix(0.06172839506172839,0,0,0.06172839506172839,43.148148148148145,0)" xlink:href="#ae"/><use transform="matrix(0.06172839506172839,0,0,0.06172839506172839,48.02469135802469,0)" xlink:href="#ar"/><use transform="matrix(0.06172839506172839,0,0,0.06172839506172839,59.1358024691358,0)" xlink:href="#au"/></g><path fill="#333" d="M11 0l48-248h184l-5 28H87l-15 79h140l-5 27H67L50-27h158l-5 27H11" id="aG"/><path fill="#333" d="M55-144c13 50 104 24 104 88C159 21 15 23 1-39l26-10c6 40 102 42 102-4-13-50-104-23-104-87 0-71 143-71 148-8l-29 4c-5-35-85-37-89 0" id="aH"/><path fill="#333" d="M67-162c32-53 139-36 121 50C175-51 163 2 97 4 68 4 52-11 42-31 38 6 28 39 22 75H-9l50-265h29c-1 10 0 20-3 28zm89 36c0-26-10-43-35-43-54 0-67 50-69 103-1 29 14 45 42 46 53 0 62-58 62-106" id="aI"/><path fill="#333" d="M111-194c62-3 86 47 72 106H45c-7 38 6 69 45 68 27-1 43-14 53-32l24 11C152-15 129 4 87 4 38 3 12-23 12-71c0-70 32-119 99-123zm44 81c14-66-71-72-95-28-4 8-8 17-11 28h106" id="aJ"/><path fill="#333" d="M44-68c0 29 11 47 38 47 30 0 42-19 51-41l28 9C148-21 126 4 82 4 31 4 10-29 12-85c3-77 74-140 146-93 12 8 15 23 18 40l-31 5c-1-22-13-36-36-36-52 0-65 49-65 101" id="aK"/><path fill="#333" d="M50-231l6-30h32l-6 30H50zM6 0l37-190h31L37 0H6" id="aL"/><path fill="#333" d="M165-48c-4 18 1 34 23 27l-3 20c-29 8-62 0-52-35h-2C116-14 99 4 63 4 30 4 8-16 8-49c0-68 71-67 138-67 10-26 0-56-31-54-26 1-42 9-47 31l-32-5c8-67 160-71 144 15-5 28-9 54-15 81zM42-50c3 52 80 24 89-6 7-12 7-24 11-38-47 1-103-4-100 44" id="aM"/><path fill="#333" d="M6 0l50-261h32L37 0H6" id="aN"/><path fill="#333" d="M133-28C103 26-5 8 13-77c13-62 24-115 90-117 29-1 46 15 56 35l19-102h32L160 0h-30zM45-64c-2 27 10 43 35 43 54-1 69-50 69-103 0-29-15-46-42-46-53-1-58 58-62 106" id="aO"/><g id="G"><use transform="matrix(0.06172839506172839,0,0,0.06172839506172839,0,0)" xlink:href="#aG"/><use transform="matrix(0.06172839506172839,0,0,0.06172839506172839,14.814814814814813,0)" xlink:href="#aH"/><use transform="matrix(0.06172839506172839,0,0,0.06172839506172839,25.925925925925924,0)" xlink:href="#aI"/><use transform="matrix(0.06172839506172839,0,0,0.06172839506172839,38.2716049382716,0)" xlink:href="#aJ"/><use transform="matrix(0.06172839506172839,0,0,0.06172839506172839,50.61728395061728,0)" xlink:href="#aK"/><use transform="matrix(0.06172839506172839,0,0,0.06172839506172839,61.72839506172839,0)" xlink:href="#aL"/><use transform="matrix(0.06172839506172839,0,0,0.06172839506172839,66.60493827160494,0)" xlink:href="#aM"/><use transform="matrix(0.06172839506172839,0,0,0.06172839506172839,78.95061728395062,0)" xlink:href="#aN"/><use transform="matrix(0.06172839506172839,0,0,0.06172839506172839,83.82716049382717,0)" xlink:href="#aL"/><use transform="matrix(0.06172839506172839,0,0,0.06172839506172839,88.70370370370371,0)" xlink:href="#aO"/><use transform="matrix(0.06172839506172839,0,0,0.06172839506172839,101.0493827160494,0)" xlink:href="#aM"/><use transform="matrix(0.06172839506172839,0,0,0.06172839506172839,113.39506172839508,0)" xlink:href="#aO"/><use transform="matrix(0.06172839506172839,0,0,0.06172839506172839,125.74074074074076,0)" xlink:href="#aJ"/><use transform="matrix(0.06172839506172839,0,0,0.06172839506172839,138.08641975308643,0)" xlink:href="#aH"/></g><path fill="#333" d="M238-179c0 84-86 86-175 82L45 0H11l48-248c82 0 179-12 179 69zm-34 1c0-53-64-42-116-43l-19 98c63 0 135 9 135-55" id="aP"/><path fill="#333" d="M180 0L97-118 63-96 45 0H11l48-248h34L69-126c44-43 94-81 141-122h43L121-137 219 0h-39" id="aQ"/><g id="H"><use transform="matrix(0.06172839506172839,0,0,0.06172839506172839,0,0)" xlink:href="#aP"/><use transform="matrix(0.06172839506172839,0,0,0.06172839506172839,14.814814814814813,0)" xlink:href="#aQ"/></g><path fill="#333" d="M14 0l48-248h34L48 0H14" id="aR"/><path fill="#333" d="M248-139C247-14 144 9 11 0l48-248c105-6 190 8 189 109zm-34 0c1-70-52-87-126-82L50-27c98 7 163-21 164-112" id="aS"/><g id="I"><use transform="matrix(0.06172839506172839,0,0,0.06172839506172839,0,0)" xlink:href="#aR"/><use transform="matrix(0.06172839506172839,0,0,0.06172839506172839,6.172839506172839,0)" xlink:href="#aS"/></g><g id="J"><use transform="matrix(0.06172839506172839,0,0,0.06172839506172839,0,0)" xlink:href="#aG"/><use transform="matrix(0.06172839506172839,0,0,0.06172839506172839,14.814814814814813,0)" xlink:href="#aH"/><use transform="matrix(0.06172839506172839,0,0,0.06172839506172839,25.925925925925924,0)" xlink:href="#aI"/><use transform="matrix(0.06172839506172839,0,0,0.06172839506172839,38.2716049382716,0)" xlink:href="#aJ"/><use transform="matrix(0.06172839506172839,0,0,0.06172839506172839,50.61728395061728,0)" xlink:href="#aK"/><use transform="matrix(0.06172839506172839,0,0,0.06172839506172839,61.72839506172839,0)" xlink:href="#aL"/><use transform="matrix(0.06172839506172839,0,0,0.06172839506172839,66.60493827160494,0)" xlink:href="#aM"/><use transform="matrix(0.06172839506172839,0,0,0.06172839506172839,78.95061728395062,0)" xlink:href="#aN"/><use transform="matrix(0.06172839506172839,0,0,0.06172839506172839,83.82716049382717,0)" xlink:href="#aL"/><use transform="matrix(0.06172839506172839,0,0,0.06172839506172839,88.70370370370371,0)" xlink:href="#aO"/><use transform="matrix(0.06172839506172839,0,0,0.06172839506172839,101.0493827160494,0)" xlink:href="#aM"/><use transform="matrix(0.06172839506172839,0,0,0.06172839506172839,113.39506172839508,0)" xlink:href="#aO"/><use transform="matrix(0.06172839506172839,0,0,0.06172839506172839,125.74074074074076,0)" xlink:href="#aJ"/></g><path fill="#333" d="M173 0L80-213 41 0H11l48-248h37l94 214 40-214h30L212 0h-39" id="aT"/><path fill="#333" d="M151-220L108 0H75l42-220H32l6-28h203l-5 28h-85" id="aU"/><g id="K"><use transform="matrix(0.06172839506172839,0,0,0.06172839506172839,0,0)" xlink:href="#aR"/><use transform="matrix(0.06172839506172839,0,0,0.06172839506172839,6.172839506172839,0)" xlink:href="#aT"/><use transform="matrix(0.06172839506172839,0,0,0.06172839506172839,22.160493827160494,0)" xlink:href="#aU"/></g><path fill="#333" d="M30-147c31-64 166-65 159 27C183-49 158 1 86 4 9 8 1-88 30-147zM88-20c53 0 68-48 68-100 0-31-11-51-44-50-52 1-68 46-68 97 0 32 13 53 44 53" id="aV"/><path fill="#333" d="M248-111c6-24 9-61-24-58-72 9-57 108-77 169h-31l26-142c3-37-50-30-64-10C52-115 50-51 37 0H6l36-190h30c-1 10-6 24-4 32 13-43 101-52 105 5 13-22 29-41 61-41 90 0 28 129 23 194h-31" id="aW"/><g id="L"><use transform="matrix(0.06172839506172839,0,0,0.06172839506172839,0,0)" xlink:href="#aT"/><use transform="matrix(0.06172839506172839,0,0,0.06172839506172839,15.987654320987653,0)" xlink:href="#aV"/><use transform="matrix(0.06172839506172839,0,0,0.06172839506172839,28.333333333333332,0)" xlink:href="#aW"/><use transform="matrix(0.06172839506172839,0,0,0.06172839506172839,46.79012345679012,0)" xlink:href="#aJ"/></g><path fill="#333" d="M119 0H84L31-248h34l41 218 126-218h36" id="aX"/><path fill="#333" d="M187 0l-14-72H61L19 0h-37l149-248h38L221 0h-34zm-19-99l-22-123L76-99h92" id="aY"/><path fill="#333" d="M249-183c0 48-29 72-75 77L221 0h-36l-43-103H65L45 0H11l48-248c83 2 190-17 190 65zm-34 3c0-55-74-39-127-41l-18 92c63-1 145 13 145-51" id="aZ"/><path fill="#333" d="M125-24c46 0 70-25 89-51l25 16C214-24 183 4 123 4 8 4-5-146 60-208c32-50 158-61 191-5 5 7 9 14 11 22l-32 10c-9-28-33-43-69-43-74 0-108 51-108 125 0 46 24 75 72 75" id="ba"/><path fill="#333" d="M179 0l23-115H67L45 0H11l48-248h34L72-143h135l21-105h32L212 0h-33" id="bb"/><g id="M"><use transform="matrix(0.06172839506172839,0,0,0.06172839506172839,0,0)" xlink:href="#aX"/><use transform="matrix(0.06172839506172839,0,0,0.06172839506172839,13.580246913580245,0)" xlink:href="#aY"/><use transform="matrix(0.06172839506172839,0,0,0.06172839506172839,28.395061728395056,0)" xlink:href="#aZ"/><use transform="matrix(0.06172839506172839,0,0,0.06172839506172839,44.38271604938271,0)" xlink:href="#ba"/><use transform="matrix(0.06172839506172839,0,0,0.06172839506172839,60.37037037037036,0)" xlink:href="#bb"/><use transform="matrix(0.06172839506172839,0,0,0.06172839506172839,76.35802469135801,0)" xlink:href="#aY"/><use transform="matrix(0.06172839506172839,0,0,0.06172839506172839,91.17283950617282,0)" xlink:href="#aZ"/></g><path fill="#333" d="M66-151c12-25 30-51 66-40l-6 26C45-176 58-65 38 0H6l36-190h30" id="bc"/><path fill="#333" d="M44-68c0 29 11 47 38 47 30 0 42-19 51-41l28 9C148-21 126 4 82 4 31 4 10-29 12-85c3-77 74-140 146-93 12 8 15 23 18 40l-31 5c-1-22-13-36-36-36-52 0-65 49-65 101zM85 43c0-13-18-15-31-12L71 0h19L80 17c16 1 28 8 28 24 0 34-40 36-72 32l4-16c19 4 44 4 45-14" id="bd"/><path fill="#333" d="M166-48c-4 18 1 34 23 27l-3 20c-29 8-62 0-52-35h-2C117-14 100 4 64 4 31 4 9-16 9-49c0-68 71-67 138-67 10-26 0-56-31-54-26 1-42 9-47 31l-32-5c8-67 160-71 144 15-5 28-9 54-15 81zM43-50c3 52 80 24 89-6 7-12 7-24 11-38-47 1-103-4-100 44zm150-208c-8 21-15 46-44 47-22 0-30-19-50-21-14 0-21 10-25 21H58c8-21 14-47 44-47 22 0 32 18 50 21 13-1 21-10 25-21h16" id="be"/><g id="N"><use transform="matrix(0.06172839506172839,0,0,0.06172839506172839,0,0)" xlink:href="#aS"/><use transform="matrix(0.06172839506172839,0,0,0.06172839506172839,15.987654320987653,0)" xlink:href="#aJ"/><use transform="matrix(0.06172839506172839,0,0,0.06172839506172839,28.333333333333332,0)" xlink:href="#aH"/><use transform="matrix(0.06172839506172839,0,0,0.06172839506172839,39.44444444444444,0)" xlink:href="#aK"/><use transform="matrix(0.06172839506172839,0,0,0.06172839506172839,50.55555555555556,0)" xlink:href="#bc"/><use transform="matrix(0.06172839506172839,0,0,0.06172839506172839,57.901234567901234,0)" xlink:href="#aL"/><use transform="matrix(0.06172839506172839,0,0,0.06172839506172839,62.77777777777778,0)" xlink:href="#bd"/><use transform="matrix(0.06172839506172839,0,0,0.06172839506172839,73.88888888888889,0)" xlink:href="#be"/><use transform="matrix(0.06172839506172839,0,0,0.06172839506172839,86.23456790123457,0)" xlink:href="#aV"/></g><g id="O"><use transform="matrix(0.06172839506172839,0,0,0.06172839506172839,0,0)" xlink:href="#av"/><use transform="matrix(0.06172839506172839,0,0,0.06172839506172839,14.814814814814813,0)" xlink:href="#aq"/><use transform="matrix(0.06172839506172839,0,0,0.06172839506172839,20.98765432098765,0)" xlink:href="#ab"/><use transform="matrix(0.06172839506172839,0,0,0.06172839506172839,33.33333333333333,0)" xlink:href="#Z"/><use transform="matrix(0.06172839506172839,0,0,0.06172839506172839,45.679012345679006,0)" xlink:href="#ap"/><use transform="matrix(0.06172839506172839,0,0,0.06172839506172839,58.02469135802468,0)" xlink:href="#ae"/><use transform="matrix(0.06172839506172839,0,0,0.06172839506172839,62.90123456790123,0)" xlink:href="#ad"/><use transform="matrix(0.06172839506172839,0,0,0.06172839506172839,81.35802469135801,0)" xlink:href="#ab"/><use transform="matrix(0.06172839506172839,0,0,0.06172839506172839,93.7037037037037,0)" xlink:href="#Z"/><use transform="matrix(0.06172839506172839,0,0,0.06172839506172839,106.04938271604938,0)" xlink:href="#aq"/><use transform="matrix(0.06172839506172839,0,0,0.06172839506172839,112.22222222222221,0)" xlink:href="#au"/></g><g id="P"><use transform="matrix(0.06172839506172839,0,0,0.06172839506172839,0,0)" xlink:href="#ap"/><use transform="matrix(0.06172839506172839,0,0,0.06172839506172839,12.345679012345679,0)" xlink:href="#au"/></g><g id="Q"><use transform="matrix(0.06172839506172839,0,0,0.06172839506172839,0,0)" xlink:href="#ag"/><use transform="matrix(0.06172839506172839,0,0,0.06172839506172839,14.814814814814813,0)" xlink:href="#af"/><use transform="matrix(0.06172839506172839,0,0,0.06172839506172839,27.160493827160494,0)" xlink:href="#ar"/><use transform="matrix(0.06172839506172839,0,0,0.06172839506172839,38.27160493827161,0)" xlink:href="#ae"/><use transform="matrix(0.06172839506172839,0,0,0.06172839506172839,43.14814814814815,0)" xlink:href="#ab"/><use transform="matrix(0.06172839506172839,0,0,0.06172839506172839,55.49382716049383,0)" xlink:href="#Z"/><use transform="matrix(0.06172839506172839,0,0,0.06172839506172839,67.8395061728395,0)" xlink:href="#aq"/><use transform="matrix(0.06172839506172839,0,0,0.06172839506172839,74.01234567901234,0)" xlink:href="#ab"/></g><g id="R"><use transform="matrix(0.06172839506172839,0,0,0.06172839506172839,0,0)" xlink:href="#aj"/><use transform="matrix(0.06172839506172839,0,0,0.06172839506172839,15.987654320987653,0)" xlink:href="#af"/><use transform="matrix(0.06172839506172839,0,0,0.06172839506172839,28.333333333333332,0)" xlink:href="#aq"/><use transform="matrix(0.06172839506172839,0,0,0.06172839506172839,34.50617283950617,0)" xlink:href="#af"/></g><use transform="matrix(0.06172839506172839,0,0,0.06172839506172839,0,0)" xlink:href="#ab" id="S"/><g id="T"><use transform="matrix(0.06172839506172839,0,0,0.06172839506172839,0,0)" xlink:href="#ax"/><use transform="matrix(0.06172839506172839,0,0,0.06172839506172839,15.987654320987653,0)" xlink:href="#au"/><use transform="matrix(0.06172839506172839,0,0,0.06172839506172839,28.333333333333332,0)" xlink:href="#ac"/><use transform="matrix(0.06172839506172839,0,0,0.06172839506172839,35.67901234567901,0)" xlink:href="#af"/></g><g id="U"><use transform="matrix(0.06172839506172839,0,0,0.06172839506172839,0,0)" xlink:href="#aj"/><use transform="matrix(0.06172839506172839,0,0,0.06172839506172839,15.987654320987653,0)" xlink:href="#av"/><use transform="matrix(0.06172839506172839,0,0,0.06172839506172839,29.1358024691358,0)" xlink:href="#al"/><use transform="matrix(0.06172839506172839,0,0,0.06172839506172839,42.654320987654316,0)" xlink:href="#Y"/><use transform="matrix(0.06172839506172839,0,0,0.06172839506172839,57.469135802469125,0)" xlink:href="#al"/><use transform="matrix(0.06172839506172839,0,0,0.06172839506172839,70.98765432098764,0)" xlink:href="#ai"/><use transform="matrix(0.06172839506172839,0,0,0.06172839506172839,77.16049382716048,0)" xlink:href="#aA"/><use transform="matrix(0.06172839506172839,0,0,0.06172839506172839,95.61728395061726,0)" xlink:href="#Y"/></g><g id="V"><use transform="matrix(0.06172839506172839,0,0,0.06172839506172839,0,0)" xlink:href="#ax"/><use transform="matrix(0.06172839506172839,0,0,0.06172839506172839,15.987654320987653,0)" xlink:href="#au"/><use transform="matrix(0.06172839506172839,0,0,0.06172839506172839,28.333333333333332,0)" xlink:href="#ay"/><use transform="matrix(0.06172839506172839,0,0,0.06172839506172839,39.44444444444444,0)" xlink:href="#az"/><use transform="matrix(0.06172839506172839,0,0,0.06172839506172839,51.79012345679012,0)" xlink:href="#ae"/><use transform="matrix(0.06172839506172839,0,0,0.06172839506172839,56.666666666666664,0)" xlink:href="#aq"/><use transform="matrix(0.06172839506172839,0,0,0.06172839506172839,62.839506172839506,0)" xlink:href="#af"/><use transform="matrix(0.06172839506172839,0,0,0.06172839506172839,75.18518518518519,0)" xlink:href="#aw"/></g><path fill="#333" d="M153-248C145-148 188 4 80 4 36 3 13-21 6-62l32-5c4 25 16 42 43 43 27 0 39-20 39-49v-147H72v-28h81" id="bf"/><g id="W"><use transform="matrix(0.06172839506172839,0,0,0.06172839506172839,0,0)" xlink:href="#an"/><use transform="matrix(0.06172839506172839,0,0,0.06172839506172839,15.987654320987653,0)" xlink:href="#ak"/><use transform="matrix(0.06172839506172839,0,0,0.06172839506172839,31.975308641975307,0)" xlink:href="#ag"/><use transform="matrix(0.06172839506172839,0,0,0.06172839506172839,46.79012345679012,0)" xlink:href="#bf"/></g><g id="X"><use transform="matrix(0.06172839506172839,0,0,0.06172839506172839,0,0)" xlink:href="#ag"/><use transform="matrix(0.06172839506172839,0,0,0.06172839506172839,14.814814814814813,0)" xlink:href="#af"/><use transform="matrix(0.06172839506172839,0,0,0.06172839506172839,27.160493827160494,0)" xlink:href="#ar"/><use transform="matrix(0.06172839506172839,0,0,0.06172839506172839,38.27160493827161,0)" xlink:href="#ae"/><use transform="matrix(0.06172839506172839,0,0,0.06172839506172839,43.14814814814815,0)" xlink:href="#ab"/><use transform="matrix(0.06172839506172839,0,0,0.06172839506172839,55.49382716049383,0)" xlink:href="#Z"/><use transform="matrix(0.06172839506172839,0,0,0.06172839506172839,67.8395061728395,0)" xlink:href="#aq"/><use transform="matrix(0.06172839506172839,0,0,0.06172839506172839,74.01234567901234,0)" xlink:href="#ab"/></g></defs></g></svg>